<svg xmlns="http://www.w3.org/2000/svg" xmlns:xlink="http://www.w3.org/1999/xlink" width="250" zoomAndPan="magnify" viewBox="0 0 187.5 74.999997" height="100" preserveAspectRatio="xMidYMid meet" version="1.0"><defs><g/><clipPath id="a1eb1445c7"><path d="M 0 0.101562 L 187 0.101562 L 187 74.898438 L 0 74.898438 Z M 0 0.101562 " clip-rule="nonzero"/></clipPath></defs><g clip-path="url(#a1eb1445c7)"><path fill="#ffffff" d="M 0 0.101562 L 187.5 0.101562 L 187.5 82.601562 L 0 82.601562 Z M 0 0.101562 " fill-opacity="1" fill-rule="nonzero"/><path fill="#ffffff" d="M 0 0.101562 L 187.5 0.101562 L 187.5 75.101562 L 0 75.101562 Z M 0 0.101562 " fill-opacity="1" fill-rule="nonzero"/><path fill="#ffffff" d="M 0 0.101562 L 187.5 0.101562 L 187.5 75.101562 L 0 75.101562 Z M 0 0.101562 " fill-opacity="1" fill-rule="nonzero"/></g><g fill="#ffc1b2" fill-opacity="0.302"><g transform="translate(3.68735, 55.871333)"><g><path d="M 31.492188 -1.03125 L 30.792969 -1.582031 C 30.28125 -1.914062 29.839844 -2.355469 29.46875 -2.941406 L 19.207031 -17.476562 C 18.984375 -17.695312 18.910156 -17.992188 18.910156 -18.285156 C 18.910156 -18.578125 18.984375 -18.835938 19.207031 -19.09375 L 29.46875 -33.664062 C 29.839844 -34.144531 30.28125 -34.621094 30.832031 -35.0625 L 31.492188 -35.539062 C 31.714844 -35.726562 31.789062 -35.980469 31.675781 -36.277344 C 31.53125 -36.460938 31.347656 -36.570312 31.164062 -36.570312 L 21.597656 -36.570312 C 21.339844 -36.570312 21.15625 -36.460938 21.082031 -36.238281 C 20.972656 -36.019531 20.972656 -35.835938 21.117188 -35.652344 L 21.15625 -35.613281 C 21.375 -35.320312 21.414062 -35.027344 21.230469 -34.730469 L 13.945312 -24.355469 C 13.722656 -24.097656 13.503906 -24.023438 13.207031 -24.097656 C 12.914062 -24.171875 12.804688 -24.394531 12.804688 -24.722656 L 12.804688 -33.589844 C 12.804688 -34.328125 13.0625 -35.027344 13.613281 -35.613281 C 13.761719 -35.796875 13.796875 -36.019531 13.722656 -36.238281 C 13.613281 -36.460938 13.429688 -36.570312 13.207031 -36.570312 L 4.96875 -36.570312 C 4.710938 -36.570312 4.523438 -36.460938 4.453125 -36.238281 C 4.339844 -36.019531 4.378906 -35.835938 4.5625 -35.652344 C 5.1875 -34.953125 5.519531 -34.144531 5.519531 -33.1875 L 5.519531 -3.199219 C 5.519531 -2.355469 5.222656 -1.617188 4.671875 -1.03125 L 4.5625 -0.917969 C 4.414062 -0.699219 4.414062 -0.515625 4.523438 -0.292969 C 4.597656 -0.0742188 4.78125 0 5.039062 0 L 13.28125 0 C 13.503906 0 13.6875 -0.109375 13.761719 -0.332031 C 13.832031 -0.550781 13.832031 -0.734375 13.6875 -0.917969 C 13.097656 -1.546875 12.804688 -2.28125 12.804688 -3.089844 L 12.804688 -11.882812 C 12.804688 -12.179688 12.914062 -12.363281 13.207031 -12.472656 C 13.503906 -12.546875 13.722656 -12.472656 13.945312 -12.214844 L 21.230469 -1.875 C 21.414062 -1.507812 21.375 -1.214844 21.15625 -0.992188 L 21.117188 -0.917969 C 20.972656 -0.699219 20.972656 -0.515625 21.082031 -0.292969 C 21.15625 -0.0742188 21.339844 0 21.597656 0 L 31.164062 0 C 31.382812 0 31.53125 -0.109375 31.675781 -0.332031 C 31.714844 -0.441406 31.714844 -0.550781 31.714844 -0.699219 C 31.675781 -0.847656 31.605469 -0.957031 31.492188 -1.03125 Z M 31.492188 -1.03125 "/></g></g></g><g fill="#ffc1b2" fill-opacity="0.302"><g transform="translate(39.845039, 55.871333)"><g><path d="M 26.785156 -36.828125 C 26.160156 -36.238281 25.421875 -35.980469 24.613281 -35.980469 L 5.003906 -35.980469 C 4.746094 -35.980469 4.5625 -35.871094 4.488281 -35.652344 C 4.378906 -35.429688 4.378906 -35.246094 4.523438 -35.0625 L 4.636719 -34.953125 C 5.222656 -34.289062 5.519531 -33.515625 5.519531 -32.632812 L 5.519531 -2.757812 C 5.519531 -2.316406 5.445312 -1.914062 5.296875 -1.507812 C 5.152344 -1.105469 4.929688 -0.734375 4.636719 -0.441406 L 4.523438 -0.332031 C 4.378906 -0.109375 4.378906 0.0742188 4.488281 0.292969 C 4.5625 0.515625 4.746094 0.589844 5.003906 0.589844 L 24.613281 0.589844 C 25.421875 0.589844 26.160156 0.882812 26.785156 1.433594 C 26.96875 1.617188 27.1875 1.65625 27.410156 1.546875 C 27.628906 1.472656 27.777344 1.289062 27.777344 0.992188 L 27.777344 -7.210938 C 27.777344 -7.433594 27.667969 -7.617188 27.445312 -7.726562 C 27.226562 -7.800781 27.003906 -7.761719 26.859375 -7.617188 C 26.195312 -6.992188 25.421875 -6.695312 24.539062 -6.695312 L 13.722656 -6.695312 C 13.464844 -6.695312 13.246094 -6.769531 13.0625 -6.953125 C 12.878906 -7.101562 12.804688 -7.320312 12.804688 -7.617188 L 12.804688 -13.132812 C 12.804688 -13.390625 12.878906 -13.613281 13.0625 -13.796875 C 13.246094 -13.945312 13.464844 -14.054688 13.722656 -14.054688 L 16.960938 -14.054688 C 17.84375 -14.054688 18.617188 -13.722656 19.277344 -13.132812 C 19.460938 -12.988281 19.648438 -12.988281 19.867188 -13.097656 C 20.089844 -13.207031 20.199219 -13.390625 20.199219 -13.613281 L 20.199219 -21.78125 C 20.199219 -22 20.089844 -22.148438 19.867188 -22.257812 C 19.648438 -22.371094 19.460938 -22.371094 19.277344 -22.257812 C 18.617188 -21.632812 17.84375 -21.339844 16.960938 -21.339844 L 13.722656 -21.339844 C 13.464844 -21.339844 13.246094 -21.414062 13.0625 -21.597656 C 12.878906 -21.742188 12.804688 -21.964844 12.804688 -22.257812 L 12.804688 -27.777344 C 12.804688 -28.035156 12.878906 -28.257812 13.0625 -28.441406 C 13.246094 -28.585938 13.464844 -28.699219 13.722656 -28.699219 L 24.539062 -28.699219 C 25.421875 -28.699219 26.195312 -28.367188 26.859375 -27.777344 C 27.003906 -27.59375 27.226562 -27.558594 27.445312 -27.667969 C 27.667969 -27.742188 27.777344 -27.925781 27.777344 -28.183594 L 27.777344 -36.421875 C 27.777344 -36.644531 27.628906 -36.828125 27.410156 -36.9375 C 27.1875 -37.011719 26.96875 -36.976562 26.785156 -36.828125 Z M 26.785156 -36.828125 "/></g></g></g><g fill="#ffc1b2" fill-opacity="0.302"><g transform="translate(72.030163, 55.871333)"><g><path d="M 34.289062 -0.917969 L 34.253906 -0.957031 C 33.664062 -1.546875 33.40625 -2.28125 33.40625 -3.164062 L 33.40625 -33.40625 C 33.40625 -34.253906 33.664062 -34.988281 34.253906 -35.613281 L 34.289062 -35.652344 C 34.398438 -35.835938 34.398438 -36.019531 34.328125 -36.238281 C 34.214844 -36.460938 34.03125 -36.570312 33.8125 -36.570312 L 25.679688 -36.570312 C 25.421875 -36.570312 25.238281 -36.460938 25.164062 -36.238281 C 25.054688 -36.019531 25.054688 -35.835938 25.203125 -35.652344 L 25.238281 -35.613281 C 25.789062 -34.988281 26.085938 -34.253906 26.085938 -33.40625 L 26.085938 -15.121094 C 26.085938 -14.972656 26.011719 -14.863281 25.863281 -14.828125 C 25.71875 -14.789062 25.605469 -14.828125 25.535156 -14.972656 L 14.019531 -34.328125 C 13.722656 -34.769531 13.796875 -35.210938 14.164062 -35.652344 C 14.273438 -35.835938 14.273438 -36.019531 14.203125 -36.238281 C 14.089844 -36.460938 13.90625 -36.570312 13.6875 -36.570312 L 12.691406 -36.570312 L 12.691406 -36.535156 L 12.691406 -36.570312 L 5.003906 -36.570312 C 4.746094 -36.570312 4.5625 -36.460938 4.488281 -36.238281 C 4.378906 -36.019531 4.378906 -35.835938 4.523438 -35.652344 C 5.113281 -34.988281 5.410156 -34.253906 5.410156 -33.445312 L 5.410156 -3.128906 C 5.410156 -2.28125 5.113281 -1.546875 4.523438 -0.917969 C 4.378906 -0.699219 4.378906 -0.515625 4.488281 -0.292969 C 4.5625 -0.0742188 4.746094 0 5.003906 0 L 13.132812 0 C 13.355469 0 13.539062 -0.0742188 13.648438 -0.292969 C 13.722656 -0.515625 13.722656 -0.699219 13.613281 -0.917969 L 13.539062 -0.992188 C 12.949219 -1.582031 12.691406 -2.316406 12.691406 -3.199219 L 12.691406 -21.449219 C 12.691406 -21.597656 12.730469 -21.671875 12.878906 -21.707031 C 13.023438 -21.742188 13.132812 -21.707031 13.246094 -21.597656 L 24.796875 -2.207031 C 25.019531 -1.730469 24.980469 -1.289062 24.652344 -0.917969 C 24.503906 -0.699219 24.503906 -0.515625 24.613281 -0.292969 C 24.6875 -0.0742188 24.871094 0 25.128906 0 L 33.8125 0 C 34.03125 0 34.214844 -0.0742188 34.328125 -0.292969 C 34.398438 -0.515625 34.398438 -0.699219 34.289062 -0.917969 Z M 34.289062 -0.917969 "/></g></g></g><g fill="#ffc1b2" fill-opacity="0.302"><g transform="translate(110.83623, 55.871333)"><g><path d="M 29.984375 -36.570312 L 21.855469 -36.570312 C 21.597656 -36.570312 21.414062 -36.460938 21.300781 -36.238281 C 21.191406 -36.019531 21.230469 -35.835938 21.375 -35.652344 L 21.707031 -35.28125 C 22.113281 -34.804688 22.332031 -34.253906 22.332031 -33.664062 L 22.332031 -14.054688 C 22.332031 -12.878906 22.183594 -11.847656 21.890625 -11 C 21.597656 -10.15625 21.230469 -9.457031 20.789062 -8.902344 C 20.347656 -8.351562 19.832031 -7.945312 19.242188 -7.691406 C 18.652344 -7.394531 18.066406 -7.285156 17.476562 -7.285156 C 16.59375 -7.285156 15.746094 -7.542969 14.9375 -8.132812 C 14.128906 -8.683594 13.503906 -9.566406 13.097656 -10.78125 C 12.804688 -11.664062 12.988281 -12.472656 13.613281 -13.171875 C 13.722656 -13.355469 13.722656 -13.539062 13.648438 -13.761719 C 13.539062 -13.945312 13.355469 -14.054688 13.132812 -14.054688 L 5.003906 -14.054688 C 4.746094 -14.054688 4.5625 -13.945312 4.488281 -13.761719 C 4.378906 -13.539062 4.378906 -13.355469 4.523438 -13.171875 C 5.113281 -12.546875 5.445312 -11.847656 5.554688 -11.039062 C 5.851562 -9.273438 6.328125 -7.800781 6.992188 -6.621094 C 7.652344 -5.445312 8.277344 -4.488281 8.941406 -3.789062 C 10.042969 -2.574219 11.332031 -1.65625 12.804688 -0.992188 C 14.273438 -0.332031 15.855469 0 17.476562 0 C 18.949219 0 20.417969 -0.292969 21.890625 -0.882812 C 23.363281 -1.472656 24.652344 -2.390625 25.789062 -3.570312 C 26.929688 -4.746094 27.851562 -6.179688 28.550781 -7.945312 C 29.25 -9.714844 29.617188 -11.738281 29.617188 -14.054688 L 29.617188 -33.8125 C 29.617188 -34.398438 29.800781 -34.953125 30.242188 -35.429688 L 30.464844 -35.652344 C 30.574219 -35.835938 30.574219 -36.019531 30.5 -36.238281 C 30.390625 -36.460938 30.207031 -36.570312 29.984375 -36.570312 Z M 29.984375 -36.570312 "/></g></g></g><g fill="#ffc1b2" fill-opacity="0.302"><g transform="translate(145.853644, 55.871333)"><g><path d="M 27.816406 -30.832031 C 26.417969 -32.671875 24.761719 -34.070312 22.921875 -35.0625 C 21.042969 -36.019531 19.09375 -36.535156 17.035156 -36.535156 C 14.972656 -36.535156 12.988281 -36.019531 11.109375 -35.0625 C 9.234375 -34.070312 7.617188 -32.671875 6.21875 -30.832031 C 4.894531 -29.101562 3.898438 -27.152344 3.238281 -25.019531 C 2.539062 -22.882812 2.207031 -20.601562 2.207031 -18.25 C 2.207031 -15.894531 2.539062 -13.613281 3.238281 -11.480469 C 3.898438 -9.308594 4.894531 -7.394531 6.21875 -5.703125 C 7.617188 -3.863281 9.234375 -2.429688 11.109375 -1.472656 C 12.988281 -0.476562 14.972656 0 17.035156 0 C 19.09375 0 21.042969 -0.476562 22.921875 -1.472656 C 24.761719 -2.429688 26.417969 -3.863281 27.816406 -5.703125 C 29.140625 -7.394531 30.132812 -9.308594 30.832031 -11.480469 C 31.492188 -13.613281 31.863281 -15.894531 31.863281 -18.25 C 31.863281 -20.601562 31.492188 -22.882812 30.832031 -25.019531 C 30.132812 -27.152344 29.140625 -29.101562 27.816406 -30.832031 Z M 17.035156 -7.285156 C 16.003906 -7.285156 15.011719 -7.578125 14.128906 -8.167969 C 13.207031 -8.757812 12.398438 -9.527344 11.738281 -10.523438 C 11.039062 -11.515625 10.484375 -12.691406 10.082031 -14.019531 C 9.675781 -15.34375 9.492188 -16.738281 9.492188 -18.25 C 9.492188 -19.71875 9.675781 -21.15625 10.082031 -22.480469 C 10.484375 -23.804688 11.039062 -24.945312 11.738281 -25.976562 C 12.398438 -26.96875 13.207031 -27.777344 14.128906 -28.367188 C 15.011719 -28.953125 16.003906 -29.25 17.035156 -29.25 C 18.066406 -29.25 19.019531 -28.953125 19.941406 -28.367188 C 20.824219 -27.777344 21.632812 -26.96875 22.296875 -25.976562 C 22.957031 -24.945312 23.511719 -23.804688 23.914062 -22.480469 C 24.320312 -21.15625 24.539062 -19.71875 24.539062 -18.25 C 24.539062 -16.738281 24.320312 -15.34375 23.914062 -14.019531 C 23.511719 -12.691406 22.957031 -11.515625 22.296875 -10.523438 C 21.632812 -9.527344 20.824219 -8.757812 19.941406 -8.167969 C 19.019531 -7.578125 18.066406 -7.285156 17.035156 -7.285156 Z M 17.035156 -7.285156 "/></g></g></g><g fill="#ffc1b2" fill-opacity="0.502"><g transform="translate(4.661155, 56.284688)"><g><path d="M 31.492188 -1.03125 L 30.792969 -1.582031 C 30.28125 -1.914062 29.839844 -2.355469 29.46875 -2.941406 L 19.207031 -17.476562 C 18.984375 -17.695312 18.910156 -17.992188 18.910156 -18.285156 C 18.910156 -18.578125 18.984375 -18.835938 19.207031 -19.09375 L 29.46875 -33.664062 C 29.839844 -34.144531 30.28125 -34.621094 30.832031 -35.0625 L 31.492188 -35.539062 C 31.714844 -35.726562 31.789062 -35.980469 31.675781 -36.277344 C 31.53125 -36.460938 31.347656 -36.570312 31.164062 -36.570312 L 21.597656 -36.570312 C 21.339844 -36.570312 21.15625 -36.460938 21.082031 -36.238281 C 20.972656 -36.019531 20.972656 -35.835938 21.117188 -35.652344 L 21.15625 -35.613281 C 21.375 -35.320312 21.414062 -35.027344 21.230469 -34.730469 L 13.945312 -24.355469 C 13.722656 -24.097656 13.503906 -24.023438 13.207031 -24.097656 C 12.914062 -24.171875 12.804688 -24.394531 12.804688 -24.722656 L 12.804688 -33.589844 C 12.804688 -34.328125 13.0625 -35.027344 13.613281 -35.613281 C 13.761719 -35.796875 13.796875 -36.019531 13.722656 -36.238281 C 13.613281 -36.460938 13.429688 -36.570312 13.207031 -36.570312 L 4.96875 -36.570312 C 4.710938 -36.570312 4.523438 -36.460938 4.453125 -36.238281 C 4.339844 -36.019531 4.378906 -35.835938 4.5625 -35.652344 C 5.1875 -34.953125 5.519531 -34.144531 5.519531 -33.1875 L 5.519531 -3.199219 C 5.519531 -2.355469 5.222656 -1.617188 4.671875 -1.03125 L 4.5625 -0.917969 C 4.414062 -0.699219 4.414062 -0.515625 4.523438 -0.292969 C 4.597656 -0.0742188 4.78125 0 5.039062 0 L 13.28125 0 C 13.503906 0 13.6875 -0.109375 13.761719 -0.332031 C 13.832031 -0.550781 13.832031 -0.734375 13.6875 -0.917969 C 13.097656 -1.546875 12.804688 -2.28125 12.804688 -3.089844 L 12.804688 -11.882812 C 12.804688 -12.179688 12.914062 -12.363281 13.207031 -12.472656 C 13.503906 -12.546875 13.722656 -12.472656 13.945312 -12.214844 L 21.230469 -1.875 C 21.414062 -1.507812 21.375 -1.214844 21.15625 -0.992188 L 21.117188 -0.917969 C 20.972656 -0.699219 20.972656 -0.515625 21.082031 -0.292969 C 21.15625 -0.0742188 21.339844 0 21.597656 0 L 31.164062 0 C 31.382812 0 31.53125 -0.109375 31.675781 -0.332031 C 31.714844 -0.441406 31.714844 -0.550781 31.714844 -0.699219 C 31.675781 -0.847656 31.605469 -0.957031 31.492188 -1.03125 Z M 31.492188 -1.03125 "/></g></g></g><g fill="#ffc1b2" fill-opacity="0.502"><g transform="translate(40.818843, 56.284688)"><g><path d="M 26.785156 -36.828125 C 26.160156 -36.238281 25.421875 -35.980469 24.613281 -35.980469 L 5.003906 -35.980469 C 4.746094 -35.980469 4.5625 -35.871094 4.488281 -35.652344 C 4.378906 -35.429688 4.378906 -35.246094 4.523438 -35.0625 L 4.636719 -34.953125 C 5.222656 -34.289062 5.519531 -33.515625 5.519531 -32.632812 L 5.519531 -2.757812 C 5.519531 -2.316406 5.445312 -1.914062 5.296875 -1.507812 C 5.152344 -1.105469 4.929688 -0.734375 4.636719 -0.441406 L 4.523438 -0.332031 C 4.378906 -0.109375 4.378906 0.0742188 4.488281 0.292969 C 4.5625 0.515625 4.746094 0.589844 5.003906 0.589844 L 24.613281 0.589844 C 25.421875 0.589844 26.160156 0.882812 26.785156 1.433594 C 26.96875 1.617188 27.1875 1.65625 27.410156 1.546875 C 27.628906 1.472656 27.777344 1.289062 27.777344 0.992188 L 27.777344 -7.210938 C 27.777344 -7.433594 27.667969 -7.617188 27.445312 -7.726562 C 27.226562 -7.800781 27.003906 -7.761719 26.859375 -7.617188 C 26.195312 -6.992188 25.421875 -6.695312 24.539062 -6.695312 L 13.722656 -6.695312 C 13.464844 -6.695312 13.246094 -6.769531 13.0625 -6.953125 C 12.878906 -7.101562 12.804688 -7.320312 12.804688 -7.617188 L 12.804688 -13.132812 C 12.804688 -13.390625 12.878906 -13.613281 13.0625 -13.796875 C 13.246094 -13.945312 13.464844 -14.054688 13.722656 -14.054688 L 16.960938 -14.054688 C 17.84375 -14.054688 18.617188 -13.722656 19.277344 -13.132812 C 19.460938 -12.988281 19.648438 -12.988281 19.867188 -13.097656 C 20.089844 -13.207031 20.199219 -13.390625 20.199219 -13.613281 L 20.199219 -21.78125 C 20.199219 -22 20.089844 -22.148438 19.867188 -22.257812 C 19.648438 -22.371094 19.460938 -22.371094 19.277344 -22.257812 C 18.617188 -21.632812 17.84375 -21.339844 16.960938 -21.339844 L 13.722656 -21.339844 C 13.464844 -21.339844 13.246094 -21.414062 13.0625 -21.597656 C 12.878906 -21.742188 12.804688 -21.964844 12.804688 -22.257812 L 12.804688 -27.777344 C 12.804688 -28.035156 12.878906 -28.257812 13.0625 -28.441406 C 13.246094 -28.585938 13.464844 -28.699219 13.722656 -28.699219 L 24.539062 -28.699219 C 25.421875 -28.699219 26.195312 -28.367188 26.859375 -27.777344 C 27.003906 -27.59375 27.226562 -27.558594 27.445312 -27.667969 C 27.667969 -27.742188 27.777344 -27.925781 27.777344 -28.183594 L 27.777344 -36.421875 C 27.777344 -36.644531 27.628906 -36.828125 27.410156 -36.9375 C 27.1875 -37.011719 26.96875 -36.976562 26.785156 -36.828125 Z M 26.785156 -36.828125 "/></g></g></g><g fill="#ffc1b2" fill-opacity="0.502"><g transform="translate(73.003968, 56.284688)"><g><path d="M 34.289062 -0.917969 L 34.253906 -0.957031 C 33.664062 -1.546875 33.40625 -2.28125 33.40625 -3.164062 L 33.40625 -33.40625 C 33.40625 -34.253906 33.664062 -34.988281 34.253906 -35.613281 L 34.289062 -35.652344 C 34.398438 -35.835938 34.398438 -36.019531 34.328125 -36.238281 C 34.214844 -36.460938 34.03125 -36.570312 33.8125 -36.570312 L 25.679688 -36.570312 C 25.421875 -36.570312 25.238281 -36.460938 25.164062 -36.238281 C 25.054688 -36.019531 25.054688 -35.835938 25.203125 -35.652344 L 25.238281 -35.613281 C 25.789062 -34.988281 26.085938 -34.253906 26.085938 -33.40625 L 26.085938 -15.121094 C 26.085938 -14.972656 26.011719 -14.863281 25.863281 -14.828125 C 25.71875 -14.789062 25.605469 -14.828125 25.535156 -14.972656 L 14.019531 -34.328125 C 13.722656 -34.769531 13.796875 -35.210938 14.164062 -35.652344 C 14.273438 -35.835938 14.273438 -36.019531 14.203125 -36.238281 C 14.089844 -36.460938 13.90625 -36.570312 13.6875 -36.570312 L 12.691406 -36.570312 L 12.691406 -36.535156 L 12.691406 -36.570312 L 5.003906 -36.570312 C 4.746094 -36.570312 4.5625 -36.460938 4.488281 -36.238281 C 4.378906 -36.019531 4.378906 -35.835938 4.523438 -35.652344 C 5.113281 -34.988281 5.410156 -34.253906 5.410156 -33.445312 L 5.410156 -3.128906 C 5.410156 -2.28125 5.113281 -1.546875 4.523438 -0.917969 C 4.378906 -0.699219 4.378906 -0.515625 4.488281 -0.292969 C 4.5625 -0.0742188 4.746094 0 5.003906 0 L 13.132812 0 C 13.355469 0 13.539062 -0.0742188 13.648438 -0.292969 C 13.722656 -0.515625 13.722656 -0.699219 13.613281 -0.917969 L 13.539062 -0.992188 C 12.949219 -1.582031 12.691406 -2.316406 12.691406 -3.199219 L 12.691406 -21.449219 C 12.691406 -21.597656 12.730469 -21.671875 12.878906 -21.707031 C 13.023438 -21.742188 13.132812 -21.707031 13.246094 -21.597656 L 24.796875 -2.207031 C 25.019531 -1.730469 24.980469 -1.289062 24.652344 -0.917969 C 24.503906 -0.699219 24.503906 -0.515625 24.613281 -0.292969 C 24.6875 -0.0742188 24.871094 0 25.128906 0 L 33.8125 0 C 34.03125 0 34.214844 -0.0742188 34.328125 -0.292969 C 34.398438 -0.515625 34.398438 -0.699219 34.289062 -0.917969 Z M 34.289062 -0.917969 "/></g></g></g><g fill="#ffc1b2" fill-opacity="0.502"><g transform="translate(111.810034, 56.284688)"><g><path d="M 29.984375 -36.570312 L 21.855469 -36.570312 C 21.597656 -36.570312 21.414062 -36.460938 21.300781 -36.238281 C 21.191406 -36.019531 21.230469 -35.835938 21.375 -35.652344 L 21.707031 -35.28125 C 22.113281 -34.804688 22.332031 -34.253906 22.332031 -33.664062 L 22.332031 -14.054688 C 22.332031 -12.878906 22.183594 -11.847656 21.890625 -11 C 21.597656 -10.15625 21.230469 -9.457031 20.789062 -8.902344 C 20.347656 -8.351562 19.832031 -7.945312 19.242188 -7.691406 C 18.652344 -7.394531 18.066406 -7.285156 17.476562 -7.285156 C 16.59375 -7.285156 15.746094 -7.542969 14.9375 -8.132812 C 14.128906 -8.683594 13.503906 -9.566406 13.097656 -10.78125 C 12.804688 -11.664062 12.988281 -12.472656 13.613281 -13.171875 C 13.722656 -13.355469 13.722656 -13.539062 13.648438 -13.761719 C 13.539062 -13.945312 13.355469 -14.054688 13.132812 -14.054688 L 5.003906 -14.054688 C 4.746094 -14.054688 4.5625 -13.945312 4.488281 -13.761719 C 4.378906 -13.539062 4.378906 -13.355469 4.523438 -13.171875 C 5.113281 -12.546875 5.445312 -11.847656 5.554688 -11.039062 C 5.851562 -9.273438 6.328125 -7.800781 6.992188 -6.621094 C 7.652344 -5.445312 8.277344 -4.488281 8.941406 -3.789062 C 10.042969 -2.574219 11.332031 -1.65625 12.804688 -0.992188 C 14.273438 -0.332031 15.855469 0 17.476562 0 C 18.949219 0 20.417969 -0.292969 21.890625 -0.882812 C 23.363281 -1.472656 24.652344 -2.390625 25.789062 -3.570312 C 26.929688 -4.746094 27.851562 -6.179688 28.550781 -7.945312 C 29.25 -9.714844 29.617188 -11.738281 29.617188 -14.054688 L 29.617188 -33.8125 C 29.617188 -34.398438 29.800781 -34.953125 30.242188 -35.429688 L 30.464844 -35.652344 C 30.574219 -35.835938 30.574219 -36.019531 30.5 -36.238281 C 30.390625 -36.460938 30.207031 -36.570312 29.984375 -36.570312 Z M 29.984375 -36.570312 "/></g></g></g><g fill="#ffc1b2" fill-opacity="0.502"><g transform="translate(146.827448, 56.284688)"><g><path d="M 27.816406 -30.832031 C 26.417969 -32.671875 24.761719 -34.070312 22.921875 -35.0625 C 21.042969 -36.019531 19.09375 -36.535156 17.035156 -36.535156 C 14.972656 -36.535156 12.988281 -36.019531 11.109375 -35.0625 C 9.234375 -34.070312 7.617188 -32.671875 6.21875 -30.832031 C 4.894531 -29.101562 3.898438 -27.152344 3.238281 -25.019531 C 2.539062 -22.882812 2.207031 -20.601562 2.207031 -18.25 C 2.207031 -15.894531 2.539062 -13.613281 3.238281 -11.480469 C 3.898438 -9.308594 4.894531 -7.394531 6.21875 -5.703125 C 7.617188 -3.863281 9.234375 -2.429688 11.109375 -1.472656 C 12.988281 -0.476562 14.972656 0 17.035156 0 C 19.09375 0 21.042969 -0.476562 22.921875 -1.472656 C 24.761719 -2.429688 26.417969 -3.863281 27.816406 -5.703125 C 29.140625 -7.394531 30.132812 -9.308594 30.832031 -11.480469 C 31.492188 -13.613281 31.863281 -15.894531 31.863281 -18.25 C 31.863281 -20.601562 31.492188 -22.882812 30.832031 -25.019531 C 30.132812 -27.152344 29.140625 -29.101562 27.816406 -30.832031 Z M 17.035156 -7.285156 C 16.003906 -7.285156 15.011719 -7.578125 14.128906 -8.167969 C 13.207031 -8.757812 12.398438 -9.527344 11.738281 -10.523438 C 11.039062 -11.515625 10.484375 -12.691406 10.082031 -14.019531 C 9.675781 -15.34375 9.492188 -16.738281 9.492188 -18.25 C 9.492188 -19.71875 9.675781 -21.15625 10.082031 -22.480469 C 10.484375 -23.804688 11.039062 -24.945312 11.738281 -25.976562 C 12.398438 -26.96875 13.207031 -27.777344 14.128906 -28.367188 C 15.011719 -28.953125 16.003906 -29.25 17.035156 -29.25 C 18.066406 -29.25 19.019531 -28.953125 19.941406 -28.367188 C 20.824219 -27.777344 21.632812 -26.96875 22.296875 -25.976562 C 22.957031 -24.945312 23.511719 -23.804688 23.914062 -22.480469 C 24.320312 -21.15625 24.539062 -19.71875 24.539062 -18.25 C 24.539062 -16.738281 24.320312 -15.34375 23.914062 -14.019531 C 23.511719 -12.691406 22.957031 -11.515625 22.296875 -10.523438 C 21.632812 -9.527344 20.824219 -8.757812 19.941406 -8.167969 C 19.019531 -7.578125 18.066406 -7.285156 17.035156 -7.285156 Z M 17.035156 -7.285156 "/></g></g></g><g fill="#287feb" fill-opacity="1"><g transform="translate(5.634959, 56.698043)"><g><path d="M 31.492188 -1.03125 L 30.792969 -1.582031 C 30.28125 -1.914062 29.839844 -2.355469 29.46875 -2.941406 L 19.207031 -17.476562 C 18.984375 -17.695312 18.910156 -17.992188 18.910156 -18.285156 C 18.910156 -18.578125 18.984375 -18.835938 19.207031 -19.09375 L 29.46875 -33.664062 C 29.839844 -34.144531 30.28125 -34.621094 30.832031 -35.0625 L 31.492188 -35.539062 C 31.714844 -35.726562 31.789062 -35.980469 31.675781 -36.277344 C 31.53125 -36.460938 31.347656 -36.570312 31.164062 -36.570312 L 21.597656 -36.570312 C 21.339844 -36.570312 21.15625 -36.460938 21.082031 -36.238281 C 20.972656 -36.019531 20.972656 -35.835938 21.117188 -35.652344 L 21.15625 -35.613281 C 21.375 -35.320312 21.414062 -35.027344 21.230469 -34.730469 L 13.945312 -24.355469 C 13.722656 -24.097656 13.503906 -24.023438 13.207031 -24.097656 C 12.914062 -24.171875 12.804688 -24.394531 12.804688 -24.722656 L 12.804688 -33.589844 C 12.804688 -34.328125 13.0625 -35.027344 13.613281 -35.613281 C 13.761719 -35.796875 13.796875 -36.019531 13.722656 -36.238281 C 13.613281 -36.460938 13.429688 -36.570312 13.207031 -36.570312 L 4.96875 -36.570312 C 4.710938 -36.570312 4.523438 -36.460938 4.453125 -36.238281 C 4.339844 -36.019531 4.378906 -35.835938 4.5625 -35.652344 C 5.1875 -34.953125 5.519531 -34.144531 5.519531 -33.1875 L 5.519531 -3.199219 C 5.519531 -2.355469 5.222656 -1.617188 4.671875 -1.03125 L 4.5625 -0.917969 C 4.414062 -0.699219 4.414062 -0.515625 4.523438 -0.292969 C 4.597656 -0.0742188 4.78125 0 5.039062 0 L 13.28125 0 C 13.503906 0 13.6875 -0.109375 13.761719 -0.332031 C 13.832031 -0.550781 13.832031 -0.734375 13.6875 -0.917969 C 13.097656 -1.546875 12.804688 -2.28125 12.804688 -3.089844 L 12.804688 -11.882812 C 12.804688 -12.179688 12.914062 -12.363281 13.207031 -12.472656 C 13.503906 -12.546875 13.722656 -12.472656 13.945312 -12.214844 L 21.230469 -1.875 C 21.414062 -1.507812 21.375 -1.214844 21.15625 -0.992188 L 21.117188 -0.917969 C 20.972656 -0.699219 20.972656 -0.515625 21.082031 -0.292969 C 21.15625 -0.0742188 21.339844 0 21.597656 0 L 31.164062 0 C 31.382812 0 31.53125 -0.109375 31.675781 -0.332031 C 31.714844 -0.441406 31.714844 -0.550781 31.714844 -0.699219 C 31.675781 -0.847656 31.605469 -0.957031 31.492188 -1.03125 Z M 31.492188 -1.03125 "/></g></g></g><g fill="#287feb" fill-opacity="1"><g transform="translate(41.792647, 56.698043)"><g><path d="M 26.785156 -36.828125 C 26.160156 -36.238281 25.421875 -35.980469 24.613281 -35.980469 L 5.003906 -35.980469 C 4.746094 -35.980469 4.5625 -35.871094 4.488281 -35.652344 C 4.378906 -35.429688 4.378906 -35.246094 4.523438 -35.0625 L 4.636719 -34.953125 C 5.222656 -34.289062 5.519531 -33.515625 5.519531 -32.632812 L 5.519531 -2.757812 C 5.519531 -2.316406 5.445312 -1.914062 5.296875 -1.507812 C 5.152344 -1.105469 4.929688 -0.734375 4.636719 -0.441406 L 4.523438 -0.332031 C 4.378906 -0.109375 4.378906 0.0742188 4.488281 0.292969 C 4.5625 0.515625 4.746094 0.589844 5.003906 0.589844 L 24.613281 0.589844 C 25.421875 0.589844 26.160156 0.882812 26.785156 1.433594 C 26.96875 1.617188 27.1875 1.65625 27.410156 1.546875 C 27.628906 1.472656 27.777344 1.289062 27.777344 0.992188 L 27.777344 -7.210938 C 27.777344 -7.433594 27.667969 -7.617188 27.445312 -7.726562 C 27.226562 -7.800781 27.003906 -7.761719 26.859375 -7.617188 C 26.195312 -6.992188 25.421875 -6.695312 24.539062 -6.695312 L 13.722656 -6.695312 C 13.464844 -6.695312 13.246094 -6.769531 13.0625 -6.953125 C 12.878906 -7.101562 12.804688 -7.320312 12.804688 -7.617188 L 12.804688 -13.132812 C 12.804688 -13.390625 12.878906 -13.613281 13.0625 -13.796875 C 13.246094 -13.945312 13.464844 -14.054688 13.722656 -14.054688 L 16.960938 -14.054688 C 17.84375 -14.054688 18.617188 -13.722656 19.277344 -13.132812 C 19.460938 -12.988281 19.648438 -12.988281 19.867188 -13.097656 C 20.089844 -13.207031 20.199219 -13.390625 20.199219 -13.613281 L 20.199219 -21.78125 C 20.199219 -22 20.089844 -22.148438 19.867188 -22.257812 C 19.648438 -22.371094 19.460938 -22.371094 19.277344 -22.257812 C 18.617188 -21.632812 17.84375 -21.339844 16.960938 -21.339844 L 13.722656 -21.339844 C 13.464844 -21.339844 13.246094 -21.414062 13.0625 -21.597656 C 12.878906 -21.742188 12.804688 -21.964844 12.804688 -22.257812 L 12.804688 -27.777344 C 12.804688 -28.035156 12.878906 -28.257812 13.0625 -28.441406 C 13.246094 -28.585938 13.464844 -28.699219 13.722656 -28.699219 L 24.539062 -28.699219 C 25.421875 -28.699219 26.195312 -28.367188 26.859375 -27.777344 C 27.003906 -27.59375 27.226562 -27.558594 27.445312 -27.667969 C 27.667969 -27.742188 27.777344 -27.925781 27.777344 -28.183594 L 27.777344 -36.421875 C 27.777344 -36.644531 27.628906 -36.828125 27.410156 -36.9375 C 27.1875 -37.011719 26.96875 -36.976562 26.785156 -36.828125 Z M 26.785156 -36.828125 "/></g></g></g><g fill="#287feb" fill-opacity="1"><g transform="translate(73.977772, 56.698043)"><g><path d="M 34.289062 -0.917969 L 34.253906 -0.957031 C 33.664062 -1.546875 33.40625 -2.28125 33.40625 -3.164062 L 33.40625 -33.40625 C 33.40625 -34.253906 33.664062 -34.988281 34.253906 -35.613281 L 34.289062 -35.652344 C 34.398438 -35.835938 34.398438 -36.019531 34.328125 -36.238281 C 34.214844 -36.460938 34.03125 -36.570312 33.8125 -36.570312 L 25.679688 -36.570312 C 25.421875 -36.570312 25.238281 -36.460938 25.164062 -36.238281 C 25.054688 -36.019531 25.054688 -35.835938 25.203125 -35.652344 L 25.238281 -35.613281 C 25.789062 -34.988281 26.085938 -34.253906 26.085938 -33.40625 L 26.085938 -15.121094 C 26.085938 -14.972656 26.011719 -14.863281 25.863281 -14.828125 C 25.71875 -14.789062 25.605469 -14.828125 25.535156 -14.972656 L 14.019531 -34.328125 C 13.722656 -34.769531 13.796875 -35.210938 14.164062 -35.652344 C 14.273438 -35.835938 14.273438 -36.019531 14.203125 -36.238281 C 14.089844 -36.460938 13.90625 -36.570312 13.6875 -36.570312 L 12.691406 -36.570312 L 12.691406 -36.535156 L 12.691406 -36.570312 L 5.003906 -36.570312 C 4.746094 -36.570312 4.5625 -36.460938 4.488281 -36.238281 C 4.378906 -36.019531 4.378906 -35.835938 4.523438 -35.652344 C 5.113281 -34.988281 5.410156 -34.253906 5.410156 -33.445312 L 5.410156 -3.128906 C 5.410156 -2.28125 5.113281 -1.546875 4.523438 -0.917969 C 4.378906 -0.699219 4.378906 -0.515625 4.488281 -0.292969 C 4.5625 -0.0742188 4.746094 0 5.003906 0 L 13.132812 0 C 13.355469 0 13.539062 -0.0742188 13.648438 -0.292969 C 13.722656 -0.515625 13.722656 -0.699219 13.613281 -0.917969 L 13.539062 -0.992188 C 12.949219 -1.582031 12.691406 -2.316406 12.691406 -3.199219 L 12.691406 -21.449219 C 12.691406 -21.597656 12.730469 -21.671875 12.878906 -21.707031 C 13.023438 -21.742188 13.132812 -21.707031 13.246094 -21.597656 L 24.796875 -2.207031 C 25.019531 -1.730469 24.980469 -1.289062 24.652344 -0.917969 C 24.503906 -0.699219 24.503906 -0.515625 24.613281 -0.292969 C 24.6875 -0.0742188 24.871094 0 25.128906 0 L 33.8125 0 C 34.03125 0 34.214844 -0.0742188 34.328125 -0.292969 C 34.398438 -0.515625 34.398438 -0.699219 34.289062 -0.917969 Z M 34.289062 -0.917969 "/></g></g></g><g fill="#287feb" fill-opacity="1"><g transform="translate(112.783838, 56.698043)"><g><path d="M 29.984375 -36.570312 L 21.855469 -36.570312 C 21.597656 -36.570312 21.414062 -36.460938 21.300781 -36.238281 C 21.191406 -36.019531 21.230469 -35.835938 21.375 -35.652344 L 21.707031 -35.28125 C 22.113281 -34.804688 22.332031 -34.253906 22.332031 -33.664062 L 22.332031 -14.054688 C 22.332031 -12.878906 22.183594 -11.847656 21.890625 -11 C 21.597656 -10.15625 21.230469 -9.457031 20.789062 -8.902344 C 20.347656 -8.351562 19.832031 -7.945312 19.242188 -7.691406 C 18.652344 -7.394531 18.066406 -7.285156 17.476562 -7.285156 C 16.59375 -7.285156 15.746094 -7.542969 14.9375 -8.132812 C 14.128906 -8.683594 13.503906 -9.566406 13.097656 -10.78125 C 12.804688 -11.664062 12.988281 -12.472656 13.613281 -13.171875 C 13.722656 -13.355469 13.722656 -13.539062 13.648438 -13.761719 C 13.539062 -13.945312 13.355469 -14.054688 13.132812 -14.054688 L 5.003906 -14.054688 C 4.746094 -14.054688 4.5625 -13.945312 4.488281 -13.761719 C 4.378906 -13.539062 4.378906 -13.355469 4.523438 -13.171875 C 5.113281 -12.546875 5.445312 -11.847656 5.554688 -11.039062 C 5.851562 -9.273438 6.328125 -7.800781 6.992188 -6.621094 C 7.652344 -5.445312 8.277344 -4.488281 8.941406 -3.789062 C 10.042969 -2.574219 11.332031 -1.65625 12.804688 -0.992188 C 14.273438 -0.332031 15.855469 0 17.476562 0 C 18.949219 0 20.417969 -0.292969 21.890625 -0.882812 C 23.363281 -1.472656 24.652344 -2.390625 25.789062 -3.570312 C 26.929688 -4.746094 27.851562 -6.179688 28.550781 -7.945312 C 29.25 -9.714844 29.617188 -11.738281 29.617188 -14.054688 L 29.617188 -33.8125 C 29.617188 -34.398438 29.800781 -34.953125 30.242188 -35.429688 L 30.464844 -35.652344 C 30.574219 -35.835938 30.574219 -36.019531 30.5 -36.238281 C 30.390625 -36.460938 30.207031 -36.570312 29.984375 -36.570312 Z M 29.984375 -36.570312 "/></g></g></g><g fill="#287feb" fill-opacity="1"><g transform="translate(147.801252, 56.698043)"><g><path d="M 27.816406 -30.832031 C 26.417969 -32.671875 24.761719 -34.070312 22.921875 -35.0625 C 21.042969 -36.019531 19.09375 -36.535156 17.035156 -36.535156 C 14.972656 -36.535156 12.988281 -36.019531 11.109375 -35.0625 C 9.234375 -34.070312 7.617188 -32.671875 6.21875 -30.832031 C 4.894531 -29.101562 3.898438 -27.152344 3.238281 -25.019531 C 2.539062 -22.882812 2.207031 -20.601562 2.207031 -18.25 C 2.207031 -15.894531 2.539062 -13.613281 3.238281 -11.480469 C 3.898438 -9.308594 4.894531 -7.394531 6.21875 -5.703125 C 7.617188 -3.863281 9.234375 -2.429688 11.109375 -1.472656 C 12.988281 -0.476562 14.972656 0 17.035156 0 C 19.09375 0 21.042969 -0.476562 22.921875 -1.472656 C 24.761719 -2.429688 26.417969 -3.863281 27.816406 -5.703125 C 29.140625 -7.394531 30.132812 -9.308594 30.832031 -11.480469 C 31.492188 -13.613281 31.863281 -15.894531 31.863281 -18.25 C 31.863281 -20.601562 31.492188 -22.882812 30.832031 -25.019531 C 30.132812 -27.152344 29.140625 -29.101562 27.816406 -30.832031 Z M 17.035156 -7.285156 C 16.003906 -7.285156 15.011719 -7.578125 14.128906 -8.167969 C 13.207031 -8.757812 12.398438 -9.527344 11.738281 -10.523438 C 11.039062 -11.515625 10.484375 -12.691406 10.082031 -14.019531 C 9.675781 -15.34375 9.492188 -16.738281 9.492188 -18.25 C 9.492188 -19.71875 9.675781 -21.15625 10.082031 -22.480469 C 10.484375 -23.804688 11.039062 -24.945312 11.738281 -25.976562 C 12.398438 -26.96875 13.207031 -27.777344 14.128906 -28.367188 C 15.011719 -28.953125 16.003906 -29.25 17.035156 -29.25 C 18.066406 -29.25 19.019531 -28.953125 19.941406 -28.367188 C 20.824219 -27.777344 21.632812 -26.96875 22.296875 -25.976562 C 22.957031 -24.945312 23.511719 -23.804688 23.914062 -22.480469 C 24.320312 -21.15625 24.539062 -19.71875 24.539062 -18.25 C 24.539062 -16.738281 24.320312 -15.34375 23.914062 -14.019531 C 23.511719 -12.691406 22.957031 -11.515625 22.296875 -10.523438 C 21.632812 -9.527344 20.824219 -8.757812 19.941406 -8.167969 C 19.019531 -7.578125 18.066406 -7.285156 17.035156 -7.285156 Z M 17.035156 -7.285156 "/></g></g></g></svg>